<svg width="24" height="24" viewBox="0 0 24 24" fill="none" xmlns="http://www.w3.org/2000/svg">
<path d="M23.6096 10.3018C23.0211 9.90566 21.4751 9.7365 20.3513 10.0395C20.291 8.91996 19.7132 7.97637 18.6572 7.15305L18.2664 6.89075L18.0059 7.28438C17.4937 8.06167 17.2778 9.09769 17.3542 10.0395C17.4145 10.6198 17.6162 11.2718 18.0059 11.745C16.543 12.5937 15.1944 12.401 9.22236 12.401H0.00204151C-0.0247244 13.7496 0.191901 16.3434 1.84139 18.455C2.02376 18.6884 2.22326 18.914 2.44024 19.1313C3.78139 20.4743 5.80775 21.4593 8.83765 21.4618C13.4603 21.466 17.4206 18.9672 19.8299 12.9259C20.6225 12.9388 22.7152 13.068 23.7395 11.0891C23.7645 11.0559 24 10.5645 24 10.5645L23.6096 10.3022V10.3018ZM6.01938 9.06878H3.42665V11.6615H6.01938V9.06878ZM9.36868 9.06878H6.77596V11.6615H9.36868V9.06878ZM12.7183 9.06878H10.1256V11.6615H12.7183V9.06878ZM16.068 9.06878H13.4753V11.6615H16.068V9.06878ZM2.66971 9.06878H0.0769861V11.6615H2.66971V9.06878ZM6.01938 5.79406H3.42665V8.38678H6.01938V5.79406ZM9.36868 5.79406H6.77596V8.38678H9.36868V5.79406ZM12.7183 5.79406H10.1256V8.38678H12.7183V5.79406ZM12.7183 2.51898H10.1256V5.11171H12.7183V2.51898Z" fill="black"/>
</svg>
