<svg width="24" height="24" viewBox="0 0 24 24" fill="none" xmlns="http://www.w3.org/2000/svg">
<path d="M23.6096 10.3056C23.0211 9.9095 21.4751 9.74034 20.3513 10.0433C20.291 8.92381 19.7132 7.98022 18.6572 7.1569L18.2664 6.89459L18.0059 7.28823C17.4937 8.06551 17.2778 9.10153 17.3542 10.0433C17.4145 10.6236 17.6162 11.2756 18.0059 11.7489C16.543 12.5975 15.1944 12.4048 9.22236 12.4048H0.00204151C-0.0247244 13.7534 0.191901 16.3472 1.84139 18.4589C2.02376 18.6923 2.22326 18.9178 2.44024 19.1352C3.78139 20.4781 5.80775 21.4631 8.83765 21.4656C13.4603 21.4699 17.4206 18.971 19.8299 12.9298C20.6225 12.9426 22.7152 13.0718 23.7395 11.0929C23.7645 11.0597 24 10.5683 24 10.5683L23.6096 10.306V10.3056ZM6.01938 9.07262H3.42665V11.6653H6.01938V9.07262ZM9.36868 9.07262H6.77596V11.6653H9.36868V9.07262ZM12.7183 9.07262H10.1256V11.6653H12.7183V9.07262ZM16.068 9.07262H13.4753V11.6653H16.068V9.07262ZM2.66971 9.07262H0.0769861V11.6653H2.66971V9.07262ZM6.01938 5.7979H3.42665V8.39063H6.01938V5.7979ZM9.36868 5.7979H6.77596V8.39063H9.36868V5.7979ZM12.7183 5.7979H10.1256V8.39063H12.7183V5.7979ZM12.7183 2.52283H10.1256V5.11555H12.7183V2.52283Z" fill="white"/>
</svg>
