<svg width="48" height="48" viewBox="0 0 48 48" fill="none" xmlns="http://www.w3.org/2000/svg">
<rect y="48" width="48" height="48" rx="8" transform="rotate(-90 0 48)" fill="url(#paint0_linear_5607_1288)"/>
<path d="M41.4469 21.6079C40.6132 21.0467 38.423 20.807 36.831 21.2363C36.7455 19.6503 35.927 18.3135 34.431 17.1471L33.8774 16.7755L33.5083 17.3332C32.7828 18.4344 32.4769 19.902 32.5851 21.2363C32.6706 22.0583 32.9562 22.982 33.5083 23.6524C31.4359 24.8547 29.5254 24.5817 21.065 24.5817H8.00289C7.96497 26.4923 8.27186 30.1668 10.6086 33.1583C10.867 33.489 11.1496 33.8085 11.457 34.1164C13.357 36.0189 16.2276 37.4143 20.52 37.4178C27.0688 37.4239 32.6792 33.8838 36.0923 25.3254C37.2152 25.3436 40.1799 25.5266 41.6309 22.7232C41.6663 22.6762 42 21.98 42 21.98L41.4469 21.6084V21.6079ZM16.5274 19.8611H12.8544V23.5341H16.5274V19.8611ZM21.2723 19.8611H17.5993V23.5341H21.2723V19.8611ZM26.0177 19.8611H22.3446V23.5341H26.0177V19.8611ZM30.763 19.8611H27.09V23.5341H30.763V19.8611ZM11.7821 19.8611H8.10906V23.5341H11.7821V19.8611ZM16.5274 15.2219H12.8544V18.8949H16.5274V15.2219ZM21.2723 15.2219H17.5993V18.8949H21.2723V15.2219ZM26.0177 15.2219H22.3446V18.8949H26.0177V15.2219ZM26.0177 10.5822H22.3446V14.2552H26.0177V10.5822Z" fill="white"/>
<defs>
<linearGradient id="paint0_linear_5607_1288" x1="0" y1="72" x2="48" y2="72" gradientUnits="userSpaceOnUse">
<stop stop-color="#0D4DF2"/>
<stop offset="1" stop-color="#2560FF"/>
</linearGradient>
</defs>
</svg>
