<svg width="48" height="48" viewBox="0 0 48 48" fill="none" xmlns="http://www.w3.org/2000/svg">
<circle cx="24" cy="24" r="24" fill="url(#paint0_linear_10641_1942)"/>
<rect width="48" height="48" rx="8" fill="white"/>
<path d="M41.511 21.6079C40.6773 21.0467 38.4871 20.807 36.8951 21.2363C36.8096 19.6503 35.9911 18.3135 34.4951 17.1471L33.9415 16.7755L33.5724 17.3332C32.8469 18.4344 32.541 19.902 32.6492 21.2363C32.7347 22.0583 33.0203 22.982 33.5724 23.6524C31.5 24.8547 29.5894 24.5817 21.1291 24.5817H8.06698C8.02906 26.4923 8.33595 30.1668 10.6727 33.1583C10.9311 33.489 11.2137 33.8085 11.5211 34.1164C13.4211 36.0189 16.2917 37.4143 20.5841 37.4178C27.1328 37.4239 32.7432 33.8838 36.1564 25.3254C37.2793 25.3436 40.244 25.5266 41.695 22.7232C41.7304 22.6762 42.0641 21.98 42.0641 21.98L41.511 21.6084V21.6079ZM16.5915 19.8611H12.9185V23.5341H16.5915V19.8611ZM21.3364 19.8611H17.6634V23.5341H21.3364V19.8611ZM26.0817 19.8611H22.4087V23.5341H26.0817V19.8611ZM30.8271 19.8611H27.1541V23.5341H30.8271V19.8611ZM11.8462 19.8611H8.17315V23.5341H11.8462V19.8611ZM16.5915 15.2219H12.9185V18.8949H16.5915V15.2219ZM21.3364 15.2219H17.6634V18.8949H21.3364V15.2219ZM26.0817 15.2219H22.4087V18.8949H26.0817V15.2219ZM26.0817 10.5822H22.4087V14.2552H26.0817V10.5822Z" fill="black"/>
<defs>
<linearGradient id="paint0_linear_10641_1942" x1="24" y1="0" x2="24" y2="48" gradientUnits="userSpaceOnUse">
<stop offset="0.364583" stop-color="white"/>
<stop offset="1" stop-color="#F9FAFB"/>
</linearGradient>
</defs>
</svg>
