<svg width="89" height="19" viewBox="0 0 89 19" fill="none" xmlns="http://www.w3.org/2000/svg">
<path d="M23.6096 7.78281C23.0211 7.38668 21.4751 7.21752 20.3513 7.52051C20.291 6.40098 19.7132 5.45739 18.6572 4.63407L18.2664 4.37177L18.0059 4.7654C17.4937 5.54269 17.2778 6.5787 17.3542 7.52051C17.4145 8.10079 17.6162 8.75281 18.0059 9.22603C16.543 10.0747 15.1944 9.88197 9.22236 9.88197H0.00204151C-0.0247244 11.2306 0.191901 13.8244 1.84139 15.9361C2.02376 16.1695 2.22326 16.395 2.44024 16.6124C3.78139 17.9553 5.80775 18.9403 8.83765 18.9428C13.4603 18.9471 17.4206 16.4482 19.8299 10.4069C20.6225 10.4198 22.7152 10.549 23.7395 8.57009C23.7645 8.5369 24 8.04548 24 8.04548L23.6096 7.78317V7.78281ZM6.01938 6.5498H3.42665V9.14252H6.01938V6.5498ZM9.36868 6.5498H6.77596V9.14252H9.36868V6.5498ZM12.7183 6.5498H10.1256V9.14252H12.7183V6.5498ZM16.068 6.5498H13.4753V9.14252H16.068V6.5498ZM2.66971 6.5498H0.0769861V9.14252H2.66971V6.5498ZM6.01938 3.27508H3.42665V5.8678H6.01938V3.27508ZM9.36868 3.27508H6.77596V5.8678H9.36868V3.27508ZM12.7183 3.27508H10.1256V5.8678H12.7183V3.27508ZM12.7183 0H10.1256V2.59272H12.7183V0Z" fill="black"/>
<path d="M35.136 14.632C34.956 14.938 34.02 16.198 32.04 16.198C29.682 16.198 27.774 14.362 27.774 11.338C27.774 8.332 29.7 6.496 32.058 6.496C34.02 6.496 34.938 7.684 35.1 7.972V2.752H38.016V16H35.136V14.632ZM35.136 11.338C35.136 9.988 34.272 8.98 32.94 8.98C31.59 8.98 30.726 9.988 30.726 11.338C30.726 12.688 31.59 13.696 32.94 13.696C34.272 13.696 35.136 12.706 35.136 11.338ZM44.0927 6.442C47.0087 6.442 49.2047 8.44 49.2047 11.338C49.2047 14.218 47.0087 16.234 44.0927 16.234C41.1587 16.234 38.9807 14.218 38.9807 11.338C38.9807 8.44 41.1587 6.442 44.0927 6.442ZM44.0927 13.696C45.4067 13.696 46.2707 12.67 46.2707 11.338C46.2707 10.006 45.4067 8.98 44.0927 8.98C42.7787 8.98 41.8967 10.006 41.8967 11.338C41.8967 12.67 42.7787 13.696 44.0927 13.696ZM56.3033 9.934C56.1593 9.682 55.6913 8.98 54.5573 8.98C53.3513 8.98 52.5593 10.006 52.5593 11.338C52.5593 12.688 53.3513 13.714 54.5753 13.714C55.7453 13.714 56.2313 12.976 56.3393 12.76H59.1473C59.0393 14.056 57.7973 16.234 54.5033 16.234C51.7493 16.234 49.6253 14.308 49.6253 11.338C49.6253 8.386 51.7493 6.442 54.4673 6.442C57.7613 6.442 59.0033 8.584 59.1473 9.934H56.3033ZM66.7869 16L62.9349 11.842V16H60.0189V2.752H62.9349V10.33L66.6609 6.676H70.3329L65.8689 10.978L70.5669 16H66.7869ZM74.7579 6.442C77.7459 6.442 79.7439 8.35 79.7439 11.392V11.896H72.6519C72.7959 13.066 73.6779 13.948 74.9559 13.948C76.0899 13.948 76.6299 13.426 76.7559 13.228H79.6539C79.5099 14.344 78.1779 16.234 74.9559 16.234C71.7879 16.234 69.7719 14.182 69.7719 11.338C69.7719 8.386 71.8239 6.442 74.7579 6.442ZM74.7579 8.566C73.6959 8.566 72.9579 9.16 72.7059 10.114H76.8099C76.5579 9.142 75.8019 8.566 74.7579 8.566ZM83.5737 11.446V16H80.6577V6.676H83.5737V8.134C83.7717 7.702 84.4557 6.658 86.3997 6.658H88.3977V9.538H85.8417C84.2037 9.538 83.5737 10.15 83.5737 11.446Z" fill="black"/>
</svg>
